<svg
    xmlns="http://www.w3.org/2000/svg" width="144.288" height="43.826" viewBox="0 0 144.288 43.826">
    <g transform="translate(-48.132 807.333)">
        <g transform="translate(92.167 -801.612)">
            <path fill="#707070" class="a" d="M187.124-778.652a4.783,4.783,0,0,0-2.925-3.336,34.5,34.5,0,0,0-4.932-1.522,12.309,12.309,0,0,1-3.434-1.256,1.238,1.238,0,0,1-.593-1.1c0-2.2,2.538-2.437,3.63-2.437a12.537,12.537,0,0,1,5.914,1.6l.657.379L187-789.01l-.611-.394a14.087,14.087,0,0,0-7.341-2c-4.492,0-7.283,2.2-7.283,5.735a3.978,3.978,0,0,0,1.664,3.385,15.773,15.773,0,0,0,4.907,1.934,5.526,5.526,0,0,0,.622.179c.131.032.256.062.358.1l1.255.316.994.305a4.287,4.287,0,0,1,1.331.549l.09.051a1.184,1.184,0,0,1,.6.638l.037.058a1.819,1.819,0,0,1,.171,1.041,1.822,1.822,0,0,1-.993,1.7,5.934,5.934,0,0,1-3.017.709,13.3,13.3,0,0,1-6.774-1.886l-.654-.416-1.618,2.647.594.409a15.131,15.131,0,0,0,8.273,2.342c4.64,0,7.639-2.242,7.639-5.71a6.209,6.209,0,0,0-.12-1.334" transform="translate(-170.738 791.403)"/>
            <g transform="translate(18.308 5.076)">
                <path fill="#707070" class="a" d="M229.352-777.27a7.533,7.533,0,0,0-5.4,2.141,7,7,0,0,0-2.238,5.218,7,7,0,0,0,2.238,5.218,7.533,7.533,0,0,0,5.4,2.142,7.533,7.533,0,0,0,5.4-2.142,7.018,7.018,0,0,0,2.264-5.218,7.017,7.017,0,0,0-2.264-5.218,7.533,7.533,0,0,0-5.4-2.141M226.2-773a4.284,4.284,0,0,1,3.124-1.281,4.319,4.319,0,0,1,3.156,1.288,4.045,4.045,0,0,1,1.312,3.078,4.051,4.051,0,0,1-1.318,3.085,4.282,4.282,0,0,1-3.123,1.281,4.409,4.409,0,0,1-4.442-4.366A4.108,4.108,0,0,1,226.2-773" transform="translate(-221.713 777.27)"/>
            </g>
            <g transform="translate(36.098 5.076)">
                <path fill="#707070" class="a" d="M288.933-777.27a9.375,9.375,0,0,0-5.639,1.892,5.014,5.014,0,0,0-4.182-1.892,8.013,8.013,0,0,0-4.62,1.425v-1.172h-3.248v14.211h3.248V-772.8a5.754,5.754,0,0,1,3.934-1.554c1.768,0,2.741,1.1,2.741,3.1v8.451h3.222v-8.3a8.722,8.722,0,0,0-.189-1.8,6.48,6.48,0,0,1,4.123-1.445c1.742,0,2.741,1.128,2.741,3.1v8.451h3.222v-8.882c0-3.391-2.1-5.582-5.355-5.582" transform="translate(-271.244 777.27)"/>
            </g>
            <g transform="translate(62.034 5.076)">
                <path fill="#707070" class="a" d="M351.858-777.27a9.568,9.568,0,0,0-5.153,1.474v-1.221h-3.247v14.211h3.247v-9.888a6.734,6.734,0,0,1,4.569-1.66c1.817,0,2.818,1.1,2.818,3.1v8.451h3.248v-8.882a5.185,5.185,0,0,0-5.482-5.582" transform="translate(-343.458 777.27)"/>
            </g>
            <g transform="translate(79.113 5.33)">
                <rect fill="#707070" class="a" width="3.222" height="14.211"/>
            </g>
            <g transform="translate(84.95 5.076)">
                <path fill="#707070" class="a" d="M420.3-775.129a7.535,7.535,0,0,0-5.4-2.141,7.533,7.533,0,0,0-5.4,2.141,7,7,0,0,0-2.238,5.218,7,7,0,0,0,2.238,5.218,7.533,7.533,0,0,0,5.4,2.142,7.535,7.535,0,0,0,5.4-2.142,7.018,7.018,0,0,0,2.263-5.218,7.018,7.018,0,0,0-2.263-5.218M411.751-773a4.284,4.284,0,0,1,3.124-1.281,4.319,4.319,0,0,1,3.156,1.288,4.044,4.044,0,0,1,1.312,3.078,4.051,4.051,0,0,1-1.318,3.085,4.284,4.284,0,0,1-3.124,1.281,4.409,4.409,0,0,1-4.442-4.366A4.108,4.108,0,0,1,411.751-773" transform="translate(-407.262 777.27)"/>
            </g>
            <g transform="translate(0 24.641)">
                <path fill="#707070" class="a" d="M175.8-722.128l-.289.5a4.734,4.734,0,0,0-2.243-.606c-.841,0-1.564.334-1.564,1.14a.711.711,0,0,0,.326.615,4.78,4.78,0,0,0,1.311.488,12.524,12.524,0,0,1,1.709.524,1.447,1.447,0,0,1,.9,1,1.964,1.964,0,0,1,.036.416c0,1.176-1.1,1.763-2.451,1.763a5.118,5.118,0,0,1-2.794-.787l.3-.488a4.986,4.986,0,0,0,2.559.714,2.381,2.381,0,0,0,1.211-.289.915.915,0,0,0,.489-.841.871.871,0,0,0-.109-.525.684.684,0,0,0-.325-.334,1.825,1.825,0,0,0-.561-.235l-.353-.109-.434-.108c-.109-.036-.236-.054-.353-.1a5.483,5.483,0,0,1-1.673-.651,1.146,1.146,0,0,1-.479-.986c0-1.229,1.058-1.772,2.324-1.772a4.749,4.749,0,0,1,2.469.669" transform="translate(-170.738 722.797)"/>
            </g>
            <g transform="translate(12.925 24.641)">
                <path fill="#707070" class="a" d="M212.939-721.178a3.139,3.139,0,0,1,.453,1.636,3.141,3.141,0,0,1-.453,1.637,3.306,3.306,0,0,1-2.875,1.619,3.289,3.289,0,0,1-3.337-3.255,3.3,3.3,0,0,1,3.337-3.255,3.3,3.3,0,0,1,2.875,1.619m-5.534,1.636a2.547,2.547,0,0,0,.769,1.872,2.568,2.568,0,0,0,1.881.768,2.552,2.552,0,0,0,1.881-.768,2.554,2.554,0,0,0,.777-1.872,2.532,2.532,0,0,0-.777-1.863,2.554,2.554,0,0,0-1.872-.778,2.636,2.636,0,0,0-2.659,2.641" transform="translate(-206.725 722.797)"/>
            </g>
            <g transform="translate(27.733 24.731)">
                <path fill="#707070" class="a" d="M252.423-721.957h-3.816v2.424H252.1v.561h-3.491v2.758h-.651v-6.33h4.467Z" transform="translate(-247.955 722.545)"/>
            </g>
            <g transform="translate(39.421 24.731)">
                <path fill="#707070" class="a" d="M285.561-721.984h-2.207v5.769H282.7v-5.769H280.5v-.561h5.064Z" transform="translate(-280.497 722.545)"/>
            </g>
            <g transform="translate(51.552 24.731)">
                <path fill="#707070" class="a" d="M321.389-716.215h-.705l-1.763-5.363-1.763,5.363h-.715l-2.17-6.33H315l1.827,5.362,1.754-5.362h.687l1.745,5.362,1.827-5.362h.723Z" transform="translate(-314.272 722.545)"/>
            </g>
            <g transform="translate(67.227 24.731)">
                <path fill="#707070" class="a" d="M364.444-716.215h-.769l-.751-1.673h-3.481l-.75,1.673h-.778l2.84-6.33h.85Zm-4.82-2.206h3.11l-1.555-3.409Z" transform="translate(-357.915 722.545)"/>
            </g>
            <g transform="translate(81.51 24.731)">
                <path fill="#707070" class="a" d="M397.683-722.545h2.694c1.835,0,2.577.588,2.577,1.962a1.655,1.655,0,0,1-1.519,1.854l1.754,2.514h-.76l-1.673-2.424c-.154.009-.326.018-.516.018h-1.908v2.405h-.651Zm.651.588v2.822H400.4c1.347,0,1.872-.407,1.872-1.411s-.525-1.411-1.872-1.411Z" transform="translate(-397.683 722.545)"/>
            </g>
            <g transform="translate(94.77 24.731)">
                <path fill="#707070" class="a" d="M439.3-721.957h-4.042v2.261h3.726v.561h-3.726v2.333h4.132v.588H434.6v-6.33H439.3Z" transform="translate(-434.604 722.545)"/>
            </g>
        </g>
        <g transform="translate(48.132 -807.333)">
            <g transform="translate(1.768 0)">
                <path fill="#707070" class="a" d="M64.182-787.613l-8.716-4.947a4.711,4.711,0,0,1-2.384-4.651l.035-.336.338-.227c.061-.043.122-.085.187-.123l15.121-8.792a4.779,4.779,0,0,1,4.765-.015l6.916,3.965a1.512,1.512,0,0,1,.768,1.321,1.513,1.513,0,0,1-.761,1.325l-15.512,9a1.276,1.276,0,0,0-.649,1.11,1.293,1.293,0,0,0,.622,1.128Zm-9.69-9.116a3.283,3.283,0,0,0,1.683,2.92l6.679,3.791a2.714,2.714,0,0,1,1.364-2.312l15.512-9a.085.085,0,0,0,.046-.079.084.084,0,0,0-.046-.079l-6.916-3.964a3.338,3.338,0,0,0-3.329.01Z" transform="translate(-53.054 807.333)"/>
            </g>
            <g transform="translate(0 9.599)">
                <path fill="#707070" class="a" d="M52.922-759.058a4.751,4.751,0,0,1-2.37-.639,4.717,4.717,0,0,1-2.4-4.12l-.025-13.051v-.039a4.738,4.738,0,0,1,.274-1.356,4.728,4.728,0,0,1,1.836-2.344l1.113.673a3.292,3.292,0,0,0,1.664,3.252l9.676,5.5,6.073,3.5-.694,1.258a1.319,1.319,0,0,0-1.169-.026l-11.589,6.738A4.753,4.753,0,0,1,52.922-759.058Zm-3.354-17.79v4.959l.025,8.068a3.3,3.3,0,0,0,1.673,2.878,3.3,3.3,0,0,0,3.329-.01L66.028-767.6l-5.016-2.894-8.7-4.938a4.7,4.7,0,0,1-2.265-2.945,3.3,3.3,0,0,0-.288.6A3.3,3.3,0,0,0,49.569-776.848ZM61.8-771.693l.018.012Z" transform="translate(-48.132 780.607)"/>
            </g>
            <g transform="translate(6.349 24.106)">
                <path fill="#707070" class="a" d="M75.863-720.5a4.765,4.765,0,0,1-2.37-.629l-6.915-3.964a1.514,1.514,0,0,1-.768-1.321,1.513,1.513,0,0,1,.761-1.326l15.513-9a1.275,1.275,0,0,0,.649-1.109,1.294,1.294,0,0,0-.622-1.128l.73-1.237,8.716,4.947a4.712,4.712,0,0,1,2.384,4.652l-.035.337-.339.227c-.06.042-.121.084-.185.121L78.258-721.14A4.767,4.767,0,0,1,75.863-720.5Zm-8.571-5.84,6.916,3.964a3.338,3.338,0,0,0,3.329-.01L92.53-731.1a3.284,3.284,0,0,0-1.683-2.919l-6.679-3.791A2.714,2.714,0,0,1,82.8-735.5l-15.512,9a.084.084,0,0,0-.046.079.084.084,0,0,0,.046.079Z" transform="translate(-65.809 740.216)"/>
            </g>
            <g transform="translate(15.278 12.678)">
                <path fill="#707070" class="a" d="M109.156-750.365a.715.715,0,0,1-.371-.1.718.718,0,0,1-.343-.69,3.293,3.293,0,0,0-1.664-3.252l-8.716-4.947c-.018-.01-.049-.03-.071-.045L92.7-762.45l-.041-.022-1.631-.939a.718.718,0,0,1-.27-.969.718.718,0,0,1,.964-.288,1.316,1.316,0,0,0,1.169.026l11.589-6.738a4.715,4.715,0,0,1,4.765-.015,4.716,4.716,0,0,1,2.4,4.12l.025,13.052c0,.013,0,.026,0,.039a4.76,4.76,0,0,1-.274,1.355,4.726,4.726,0,0,1-1.836,2.344A.717.717,0,0,1,109.156-750.365ZM98.8-760.593l8.692,4.933a4.7,4.7,0,0,1,2.265,2.945,3.314,3.314,0,0,0,.288-.6,3.329,3.329,0,0,0,.19-.928V-759.2l-.025-8.067a3.294,3.294,0,0,0-1.673-2.878,3.3,3.3,0,0,0-3.329.01l-11.432,6.647,4.957,2.856Z" transform="translate(-90.669 772.034)"/>
            </g>
        </g>
    </g>
</svg>